<?xml version="1.0" encoding="UTF-8"?>
<!DOCTYPE svg PUBLIC "-//W3C//DTD SVG 1.1//EN" "http://www.w3.org/Graphics/SVG/1.1/DTD/svg11.dtd">
<svg xmlns="http://www.w3.org/2000/svg" version="1.1" width="409px" height="268px" style="shape-rendering:geometricPrecision; text-rendering:geometricPrecision; image-rendering:optimizeQuality; fill-rule:evenodd; clip-rule:evenodd" xmlns:xlink="http://www.w3.org/1999/xlink">
<g><path style="opacity:1" fill="#000000" d="M 170.5,-0.5 C 249.833,-0.5 329.167,-0.5 408.5,-0.5C 408.5,88.8333 408.5,178.167 408.5,267.5C 329.167,267.5 249.833,267.5 170.5,267.5C 170.5,178.167 170.5,88.8333 170.5,-0.5 Z"/></g>
<g><path style="opacity:1" fill="#37513d" d="M 171.5,0.5 C 250.167,0.5 328.833,0.5 407.5,0.5C 407.5,89.1667 407.5,177.833 407.5,266.5C 328.833,266.5 250.167,266.5 171.5,266.5C 171.5,177.833 171.5,89.1667 171.5,0.5 Z"/></g>
<g><path style="opacity:0.994" fill="#36513c" d="M -0.5,24.5 C 48.5,24.5 97.5,24.5 146.5,24.5C 146.5,38.5 146.5,52.5 146.5,66.5C 115.833,66.5 85.1667,66.5 54.5,66.5C 54.5,80.1667 54.5,93.8333 54.5,107.5C 82.5,107.5 110.5,107.5 138.5,107.5C 138.5,121.5 138.5,135.5 138.5,149.5C 110.5,149.5 82.5,149.5 54.5,149.5C 54.5,180.833 54.5,212.167 54.5,243.5C 36.1667,243.5 17.8333,243.5 -0.5,243.5C -0.5,170.5 -0.5,97.5 -0.5,24.5 Z"/></g>
<g><path style="opacity:1" fill="#f2f2f2" d="M 383.5,24.5 C 383.5,97.1667 383.5,169.833 383.5,242.5C 365.833,242.5 348.167,242.5 330.5,242.5C 303.167,193.167 275.833,143.833 248.5,94.5C 248.217,93.7109 247.717,93.0442 247,92.5C 246.5,142.499 246.333,192.499 246.5,242.5C 229.833,242.5 213.167,242.5 196.5,242.5C 196.5,169.833 196.5,97.1667 196.5,24.5C 219.176,24.167 241.843,24.5003 264.5,25.5C 287.333,66.5 310.167,107.5 333,148.5C 333.5,107.168 333.667,65.8347 333.5,24.5C 350.167,24.5 366.833,24.5 383.5,24.5 Z"/></g>
<g><path style="opacity:1" fill="#808d82" d="M 248.5,94.5 C 247.501,143.997 247.168,193.664 247.5,243.5C 230.325,243.83 213.325,243.497 196.5,242.5C 213.167,242.5 229.833,242.5 246.5,242.5C 246.333,192.499 246.5,142.499 247,92.5C 247.717,93.0442 248.217,93.7109 248.5,94.5 Z"/></g>
<g><path style="opacity:1" fill="#919b92" d="M 383.5,24.5 C 384.499,97.3314 384.833,170.331 384.5,243.5C 366.326,243.83 348.326,243.497 330.5,242.5C 348.167,242.5 365.833,242.5 383.5,242.5C 383.5,169.833 383.5,97.1667 383.5,24.5 Z"/></g>
</svg>
